solid OpenSCAD_Model
  facet normal -1 0 0
    outer loop
      vertex 0 12.5 0
      vertex 0 12.5 11
      vertex 0 16.5 0
    endloop
  endfacet
  facet normal -1 0 0
    outer loop
      vertex 0 16.5 0
      vertex 0 12.5 11
      vertex 0 16.5 11
    endloop
  endfacet
  facet normal 0 -1 0
    outer loop
      vertex 4.38197 12.5 3.59789
      vertex 0 12.5 0
      vertex 10 12.5 0
    endloop
  endfacet
  facet normal 0 -1 0
    outer loop
      vertex 0 12.5 11
      vertex 0 12.5 0
      vertex 3.38197 12.5 4.32443
    endloop
  endfacet
  facet normal 0 -1 0
    outer loop
      vertex 0 12.5 11
      vertex 3.38197 12.5 4.32443
      vertex 3 12.5 5.5
    endloop
  endfacet
  facet normal 0 -1 0
    outer loop
      vertex 7 12.5 5.5
      vertex 6.61803 12.5 4.32443
      vertex 10 12.5 0
    endloop
  endfacet
  facet normal 0 -1 0
    outer loop
      vertex 0 12.5 11
      vertex 3 12.5 5.5
      vertex 3.38197 12.5 6.67557
    endloop
  endfacet
  facet normal 0 -1 0
    outer loop
      vertex 6.61803 12.5 4.32443
      vertex 5.61803 12.5 3.59789
      vertex 10 12.5 0
    endloop
  endfacet
  facet normal 0 -1 0
    outer loop
      vertex 10 12.5 11
      vertex 0 12.5 11
      vertex 4.38197 12.5 7.40211
    endloop
  endfacet
  facet normal 0 -1 0
    outer loop
      vertex 5.61803 12.5 3.59789
      vertex 4.38197 12.5 3.59789
      vertex 10 12.5 0
    endloop
  endfacet
  facet normal 0 -1 0
    outer loop
      vertex 10 12.5 11
      vertex 4.38197 12.5 7.40211
      vertex 5.61803 12.5 7.40211
    endloop
  endfacet
  facet normal 0 -1 0
    outer loop
      vertex 10 12.5 11
      vertex 6.61803 12.5 6.67557
      vertex 10 12.5 0
    endloop
  endfacet
  facet normal 0 -1 0
    outer loop
      vertex 10 12.5 11
      vertex 5.61803 12.5 7.40211
      vertex 6.61803 12.5 6.67557
    endloop
  endfacet
  facet normal 0 -1 0
    outer loop
      vertex 6.61803 12.5 6.67557
      vertex 7 12.5 5.5
      vertex 10 12.5 0
    endloop
  endfacet
  facet normal 0 -1 0
    outer loop
      vertex 3.38197 12.5 4.32443
      vertex 0 12.5 0
      vertex 4.38197 12.5 3.59789
    endloop
  endfacet
  facet normal 0 -1 0
    outer loop
      vertex 3.38197 12.5 6.67557
      vertex 4.38197 12.5 7.40211
      vertex 0 12.5 11
    endloop
  endfacet
  facet normal 0 0 -1
    outer loop
      vertex 0 12.5 0
      vertex 0 16.5 0
      vertex 10 12.5 0
    endloop
  endfacet
  facet normal 0 0 -1
    outer loop
      vertex 10 12.5 0
      vertex 0 16.5 0
      vertex 16 16.5 0
    endloop
  endfacet
  facet normal 0 0 -1
    outer loop
      vertex 10 12.5 0
      vertex 16 16.5 0
      vertex 16 12.5 0
    endloop
  endfacet
  facet normal 0 0 -1
    outer loop
      vertex 14.0113 9.26527 0
      vertex 16 12.5 0
      vertex 16 4 0
    endloop
  endfacet
  facet normal 0 0 -1
    outer loop
      vertex 46.5 12.5 0
      vertex 46.5 16.5 0
      vertex 60.5 16.5 0
    endloop
  endfacet
  facet normal 0 0 -1
    outer loop
      vertex 52.5 0 0
      vertex 50.5113 9.26527 0
      vertex 52.5 12.5 0
    endloop
  endfacet
  facet normal 0 0 -1
    outer loop
      vertex 46.5 12.5 0
      vertex 60.5 16.5 0
      vertex 52.5 12.5 0
    endloop
  endfacet
  facet normal 0 0 -1
    outer loop
      vertex 11.75 10 0
      vertex 10 12.5 0
      vertex 11.9887 10.7347 0
    endloop
  endfacet
  facet normal 0 0 -1
    outer loop
      vertex 46.5 4 0
      vertex 52.5 0 0
      vertex 16 4 0
    endloop
  endfacet
  facet normal 0 0 -1
    outer loop
      vertex 16 4 0
      vertex 52.5 0 0
      vertex 10 0 0
    endloop
  endfacet
  facet normal 0 0 -1
    outer loop
      vertex 12.6137 8.81118 0
      vertex 16 4 0
      vertex 11.9887 9.26527 0
    endloop
  endfacet
  facet normal 0 0 -1
    outer loop
      vertex 52.5 12.5 0
      vertex 60.5 16.5 0
      vertex 60.5 12.5 0
    endloop
  endfacet
  facet normal 0 0 -1
    outer loop
      vertex 14.0113 10.7347 0
      vertex 16 12.5 0
      vertex 14.25 10 0
    endloop
  endfacet
  facet normal 0 0 -1
    outer loop
      vertex 12.6137 11.1888 0
      vertex 10 12.5 0
      vertex 13.3863 11.1888 0
    endloop
  endfacet
  facet normal 0 0 -1
    outer loop
      vertex 12.6137 8.81118 0
      vertex 13.3863 8.81118 0
      vertex 16 4 0
    endloop
  endfacet
  facet normal 0 0 -1
    outer loop
      vertex 14.25 10 0
      vertex 16 12.5 0
      vertex 14.0113 9.26527 0
    endloop
  endfacet
  facet normal 0 0 -1
    outer loop
      vertex 13.3863 8.81118 0
      vertex 14.0113 9.26527 0
      vertex 16 4 0
    endloop
  endfacet
  facet normal 0 0 -1
    outer loop
      vertex 13.3863 11.1888 0
      vertex 16 12.5 0
      vertex 14.0113 10.7347 0
    endloop
  endfacet
  facet normal 0 0 -1
    outer loop
      vertex 10 12.5 0
      vertex 16 12.5 0
      vertex 13.3863 11.1888 0
    endloop
  endfacet
  facet normal 0 0 -1
    outer loop
      vertex 50.5113 9.26527 0
      vertex 46.5 4 0
      vertex 49.8863 8.81118 0
    endloop
  endfacet
  facet normal 0 0 -1
    outer loop
      vertex 10 12.5 0
      vertex 12.6137 11.1888 0
      vertex 11.9887 10.7347 0
    endloop
  endfacet
  facet normal 0 0 -1
    outer loop
      vertex 46.5 12.5 0
      vertex 48.25 10 0
      vertex 46.5 4 0
    endloop
  endfacet
  facet normal 0 0 -1
    outer loop
      vertex 48.25 10 0
      vertex 48.4887 9.26527 0
      vertex 46.5 4 0
    endloop
  endfacet
  facet normal 0 0 -1
    outer loop
      vertex 49.8863 11.1888 0
      vertex 52.5 12.5 0
      vertex 50.5113 10.7347 0
    endloop
  endfacet
  facet normal 0 0 -1
    outer loop
      vertex 48.4887 9.26527 0
      vertex 49.1137 8.81118 0
      vertex 46.5 4 0
    endloop
  endfacet
  facet normal 0 0 -1
    outer loop
      vertex 49.1137 8.81118 0
      vertex 49.8863 8.81118 0
      vertex 46.5 4 0
    endloop
  endfacet
  facet normal 0 0 -1
    outer loop
      vertex 52.5 0 0
      vertex 46.5 4 0
      vertex 50.5113 9.26527 0
    endloop
  endfacet
  facet normal 0 0 -1
    outer loop
      vertex 50.5113 10.7347 0
      vertex 52.5 12.5 0
      vertex 50.75 10 0
    endloop
  endfacet
  facet normal 0 0 -1
    outer loop
      vertex 52.5 12.5 0
      vertex 50.5113 9.26527 0
      vertex 50.75 10 0
    endloop
  endfacet
  facet normal 0 0 -1
    outer loop
      vertex 46.5 12.5 0
      vertex 52.5 12.5 0
      vertex 49.8863 11.1888 0
    endloop
  endfacet
  facet normal 0 0 -1
    outer loop
      vertex 46.5 12.5 0
      vertex 49.8863 11.1888 0
      vertex 49.1137 11.1888 0
    endloop
  endfacet
  facet normal 0 0 -1
    outer loop
      vertex 46.5 12.5 0
      vertex 49.1137 11.1888 0
      vertex 48.4887 10.7347 0
    endloop
  endfacet
  facet normal 0 0 -1
    outer loop
      vertex 46.5 12.5 0
      vertex 48.4887 10.7347 0
      vertex 48.25 10 0
    endloop
  endfacet
  facet normal 0 0 -1
    outer loop
      vertex 10 12.5 0
      vertex 11.75 10 0
      vertex 11.9887 9.26527 0
    endloop
  endfacet
  facet normal 0 0 -1
    outer loop
      vertex 11.9887 9.26527 0
      vertex 16 4 0
      vertex 10 0 0
    endloop
  endfacet
  facet normal 0 0 -1
    outer loop
      vertex 10 12.5 0
      vertex 11.9887 9.26527 0
      vertex 10 0 0
    endloop
  endfacet
  facet normal 0 1 0
    outer loop
      vertex 5.61803 16.5 7.40211
      vertex 0 16.5 11
      vertex 16 16.5 11
    endloop
  endfacet
  facet normal 0 1 0
    outer loop
      vertex 0 16.5 0
      vertex 0 16.5 11
      vertex 3 16.5 5.5
    endloop
  endfacet
  facet normal 0 1 0
    outer loop
      vertex 0 16.5 0
      vertex 3 16.5 5.5
      vertex 3.38197 16.5 4.32443
    endloop
  endfacet
  facet normal 0 1 0
    outer loop
      vertex 0 16.5 0
      vertex 3.38197 16.5 4.32443
      vertex 4.38197 16.5 3.59789
    endloop
  endfacet
  facet normal 0 1 0
    outer loop
      vertex 0 16.5 0
      vertex 4.38197 16.5 3.59789
      vertex 16 16.5 0
    endloop
  endfacet
  facet normal 0 1 0
    outer loop
      vertex 6.61803 16.5 4.32443
      vertex 16 16.5 0
      vertex 5.61803 16.5 3.59789
    endloop
  endfacet
  facet normal 0 1 0
    outer loop
      vertex 6.61803 16.5 6.67557
      vertex 16 16.5 0
      vertex 7 16.5 5.5
    endloop
  endfacet
  facet normal 0 1 0
    outer loop
      vertex 3.38197 16.5 6.67557
      vertex 0 16.5 11
      vertex 4.38197 16.5 7.40211
    endloop
  endfacet
  facet normal 0 1 0
    outer loop
      vertex 6.61803 16.5 4.32443
      vertex 7 16.5 5.5
      vertex 16 16.5 0
    endloop
  endfacet
  facet normal 0 1 0
    outer loop
      vertex 4.38197 16.5 7.40211
      vertex 0 16.5 11
      vertex 5.61803 16.5 7.40211
    endloop
  endfacet
  facet normal 0 1 0
    outer loop
      vertex 16 16.5 0
      vertex 6.61803 16.5 6.67557
      vertex 16 16.5 11
    endloop
  endfacet
  facet normal 0 1 0
    outer loop
      vertex 6.61803 16.5 6.67557
      vertex 5.61803 16.5 7.40211
      vertex 16 16.5 11
    endloop
  endfacet
  facet normal 0 1 0
    outer loop
      vertex 3 16.5 5.5
      vertex 0 16.5 11
      vertex 3.38197 16.5 6.67557
    endloop
  endfacet
  facet normal 0 1 0
    outer loop
      vertex 5.61803 16.5 3.59789
      vertex 16 16.5 0
      vertex 4.38197 16.5 3.59789
    endloop
  endfacet
  facet normal 0 0 1
    outer loop
      vertex 0 16.5 11
      vertex 0 12.5 11
      vertex 10 12.5 11
    endloop
  endfacet
  facet normal 0 0 1
    outer loop
      vertex 60.5 12.5 11
      vertex 60.5 16.5 11
      vertex 46.5 16.5 11
    endloop
  endfacet
  facet normal 0 0 1
    outer loop
      vertex 49.1137 11.1888 11
      vertex 52.5 12.5 11
      vertex 46.5 12.5 11
    endloop
  endfacet
  facet normal 0 0 1
    outer loop
      vertex 52.5 0 11
      vertex 46.5 12.5 11
      vertex 46.5 4 11
    endloop
  endfacet
  facet normal 0 0 1
    outer loop
      vertex 11.75 10 11
      vertex 11.9887 10.7347 11
      vertex 10 12.5 11
    endloop
  endfacet
  facet normal 0 0 1
    outer loop
      vertex 10 0 11
      vertex 52.5 0 11
      vertex 16 4 11
    endloop
  endfacet
  facet normal 0 0 1
    outer loop
      vertex 13.3863 11.1888 11
      vertex 0 16.5 11
      vertex 10 12.5 11
    endloop
  endfacet
  facet normal 0 0 1
    outer loop
      vertex 16 12.5 11
      vertex 16 16.5 11
      vertex 0 16.5 11
    endloop
  endfacet
  facet normal 0 0 1
    outer loop
      vertex 10 0 11
      vertex 11.9887 9.26527 11
      vertex 10 12.5 11
    endloop
  endfacet
  facet normal 0 0 1
    outer loop
      vertex 10 0 11
      vertex 16 4 11
      vertex 11.9887 9.26527 11
    endloop
  endfacet
  facet normal 0 0 1
    outer loop
      vertex 11.9887 9.26527 11
      vertex 11.75 10 11
      vertex 10 12.5 11
    endloop
  endfacet
  facet normal 0 0 1
    outer loop
      vertex 13.3863 11.1888 11
      vertex 16 12.5 11
      vertex 0 16.5 11
    endloop
  endfacet
  facet normal 0 0 1
    outer loop
      vertex 11.9887 10.7347 11
      vertex 12.6137 11.1888 11
      vertex 10 12.5 11
    endloop
  endfacet
  facet normal 0 0 1
    outer loop
      vertex 14.25 10 11
      vertex 16 12.5 11
      vertex 14.0113 10.7347 11
    endloop
  endfacet
  facet normal 0 0 1
    outer loop
      vertex 12.6137 11.1888 11
      vertex 13.3863 11.1888 11
      vertex 10 12.5 11
    endloop
  endfacet
  facet normal 0 0 1
    outer loop
      vertex 16 4 11
      vertex 16 12.5 11
      vertex 14.25 10 11
    endloop
  endfacet
  facet normal 0 0 1
    outer loop
      vertex 14.0113 10.7347 11
      vertex 16 12.5 11
      vertex 13.3863 11.1888 11
    endloop
  endfacet
  facet normal 0 0 1
    outer loop
      vertex 16 4 11
      vertex 14.25 10 11
      vertex 14.0113 9.26527 11
    endloop
  endfacet
  facet normal 0 0 1
    outer loop
      vertex 49.1137 11.1888 11
      vertex 49.8863 11.1888 11
      vertex 52.5 12.5 11
    endloop
  endfacet
  facet normal 0 0 1
    outer loop
      vertex 16 4 11
      vertex 14.0113 9.26527 11
      vertex 13.3863 8.81118 11
    endloop
  endfacet
  facet normal 0 0 1
    outer loop
      vertex 49.8863 11.1888 11
      vertex 50.5113 10.7347 11
      vertex 52.5 12.5 11
    endloop
  endfacet
  facet normal 0 0 1
    outer loop
      vertex 52.5 0 11
      vertex 48.4887 9.26527 11
      vertex 46.5 12.5 11
    endloop
  endfacet
  facet normal 0 0 1
    outer loop
      vertex 48.4887 9.26527 11
      vertex 48.25 10 11
      vertex 46.5 12.5 11
    endloop
  endfacet
  facet normal 0 0 1
    outer loop
      vertex 50.75 10 11
      vertex 50.5113 9.26527 11
      vertex 52.5 0 11
    endloop
  endfacet
  facet normal 0 0 1
    outer loop
      vertex 48.25 10 11
      vertex 48.4887 10.7347 11
      vertex 46.5 12.5 11
    endloop
  endfacet
  facet normal 0 0 1
    outer loop
      vertex 48.4887 10.7347 11
      vertex 49.1137 11.1888 11
      vertex 46.5 12.5 11
    endloop
  endfacet
  facet normal 0 0 1
    outer loop
      vertex 50.75 10 11
      vertex 52.5 12.5 11
      vertex 50.5113 10.7347 11
    endloop
  endfacet
  facet normal 0 0 1
    outer loop
      vertex 52.5 0 11
      vertex 52.5 12.5 11
      vertex 50.75 10 11
    endloop
  endfacet
  facet normal 0 0 1
    outer loop
      vertex 52.5 0 11
      vertex 50.5113 9.26527 11
      vertex 49.8863 8.81118 11
    endloop
  endfacet
  facet normal 0 0 1
    outer loop
      vertex 52.5 0 11
      vertex 49.1137 8.81118 11
      vertex 48.4887 9.26527 11
    endloop
  endfacet
  facet normal 0 0 1
    outer loop
      vertex 52.5 0 11
      vertex 49.8863 8.81118 11
      vertex 49.1137 8.81118 11
    endloop
  endfacet
  facet normal 0 0 1
    outer loop
      vertex 13.3863 8.81118 11
      vertex 12.6137 8.81118 11
      vertex 16 4 11
    endloop
  endfacet
  facet normal 0 0 1
    outer loop
      vertex 46.5 16.5 11
      vertex 52.5 12.5 11
      vertex 60.5 12.5 11
    endloop
  endfacet
  facet normal 0 0 1
    outer loop
      vertex 46.5 16.5 11
      vertex 46.5 12.5 11
      vertex 52.5 12.5 11
    endloop
  endfacet
  facet normal 0 0 1
    outer loop
      vertex 12.6137 8.81118 11
      vertex 11.9887 9.26527 11
      vertex 16 4 11
    endloop
  endfacet
  facet normal 0 0 1
    outer loop
      vertex 46.5 4 11
      vertex 16 4 11
      vertex 52.5 0 11
    endloop
  endfacet
  facet normal -1 0 0
    outer loop
      vertex 10 0 0
      vertex 10 0 11
      vertex 10 12.5 0
    endloop
  endfacet
  facet normal -1 0 0
    outer loop
      vertex 10 12.5 0
      vertex 10 0 11
      vertex 10 12.5 11
    endloop
  endfacet
  facet normal 0.951057 -6.86155e-17 0.309017
    outer loop
      vertex 3.38197 12.5 4.32443
      vertex 3.38197 16.5 4.32443
      vertex 3 16.5 5.5
    endloop
  endfacet
  facet normal 0.951057 -6.86155e-17 0.309017
    outer loop
      vertex 3 12.5 5.5
      vertex 3.38197 12.5 4.32443
      vertex 3 16.5 5.5
    endloop
  endfacet
  facet normal 0.587785 -1.79638e-16 0.809017
    outer loop
      vertex 4.38197 12.5 3.59789
      vertex 4.38197 16.5 3.59789
      vertex 3.38197 16.5 4.32443
    endloop
  endfacet
  facet normal 0.587785 -1.79638e-16 0.809017
    outer loop
      vertex 3.38197 12.5 4.32443
      vertex 4.38197 12.5 3.59789
      vertex 3.38197 16.5 4.32443
    endloop
  endfacet
  facet normal 0 -2.22045e-16 1
    outer loop
      vertex 5.61803 12.5 3.59789
      vertex 5.61803 16.5 3.59789
      vertex 4.38197 16.5 3.59789
    endloop
  endfacet
  facet normal 0 -2.22045e-16 1
    outer loop
      vertex 4.38197 12.5 3.59789
      vertex 5.61803 12.5 3.59789
      vertex 4.38197 16.5 3.59789
    endloop
  endfacet
  facet normal -0.587785 -1.79638e-16 0.809017
    outer loop
      vertex 6.61803 12.5 4.32443
      vertex 6.61803 16.5 4.32443
      vertex 5.61803 16.5 3.59789
    endloop
  endfacet
  facet normal -0.587785 -1.79638e-16 0.809017
    outer loop
      vertex 5.61803 12.5 3.59789
      vertex 6.61803 12.5 4.32443
      vertex 5.61803 16.5 3.59789
    endloop
  endfacet
  facet normal -0.951057 -6.86155e-17 0.309017
    outer loop
      vertex 7 16.5 5.5
      vertex 6.61803 16.5 4.32443
      vertex 7 12.5 5.5
    endloop
  endfacet
  facet normal -0.951057 -6.86155e-17 0.309017
    outer loop
      vertex 7 12.5 5.5
      vertex 6.61803 16.5 4.32443
      vertex 6.61803 12.5 4.32443
    endloop
  endfacet
  facet normal -0.951057 6.86155e-17 -0.309017
    outer loop
      vertex 7 16.5 5.5
      vertex 7 12.5 5.5
      vertex 6.61803 16.5 6.67557
    endloop
  endfacet
  facet normal -0.951057 6.86155e-17 -0.309017
    outer loop
      vertex 6.61803 16.5 6.67557
      vertex 7 12.5 5.5
      vertex 6.61803 12.5 6.67557
    endloop
  endfacet
  facet normal -0.587785 1.79638e-16 -0.809017
    outer loop
      vertex 6.61803 16.5 6.67557
      vertex 6.61803 12.5 6.67557
      vertex 5.61803 16.5 7.40211
    endloop
  endfacet
  facet normal -0.587785 1.79638e-16 -0.809017
    outer loop
      vertex 5.61803 16.5 7.40211
      vertex 6.61803 12.5 6.67557
      vertex 5.61803 12.5 7.40211
    endloop
  endfacet
  facet normal 0 2.22045e-16 -1
    outer loop
      vertex 5.61803 16.5 7.40211
      vertex 5.61803 12.5 7.40211
      vertex 4.38197 16.5 7.40211
    endloop
  endfacet
  facet normal 0 2.22045e-16 -1
    outer loop
      vertex 4.38197 16.5 7.40211
      vertex 5.61803 12.5 7.40211
      vertex 4.38197 12.5 7.40211
    endloop
  endfacet
  facet normal 0.587785 1.79638e-16 -0.809017
    outer loop
      vertex 4.38197 16.5 7.40211
      vertex 4.38197 12.5 7.40211
      vertex 3.38197 16.5 6.67557
    endloop
  endfacet
  facet normal 0.587785 1.79638e-16 -0.809017
    outer loop
      vertex 3.38197 16.5 6.67557
      vertex 4.38197 12.5 7.40211
      vertex 3.38197 12.5 6.67557
    endloop
  endfacet
  facet normal 0.951057 6.86155e-17 -0.309017
    outer loop
      vertex 3 16.5 5.5
      vertex 3.38197 16.5 6.67557
      vertex 3.38197 12.5 6.67557
    endloop
  endfacet
  facet normal 0.951057 6.86155e-17 -0.309017
    outer loop
      vertex 3 12.5 5.5
      vertex 3 16.5 5.5
      vertex 3.38197 12.5 6.67557
    endloop
  endfacet
  facet normal 0 -1 0
    outer loop
      vertex 10 0 11
      vertex 10 0 0
      vertex 52.5 0 0
    endloop
  endfacet
  facet normal 0 -1 0
    outer loop
      vertex 52.5 0 11
      vertex 10 0 11
      vertex 52.5 0 0
    endloop
  endfacet
  facet normal 1 0 0
    outer loop
      vertex 52.5 0 11
      vertex 52.5 0 0
      vertex 52.5 12.5 0
    endloop
  endfacet
  facet normal 1 0 0
    outer loop
      vertex 52.5 12.5 11
      vertex 52.5 0 11
      vertex 52.5 12.5 0
    endloop
  endfacet
  facet normal 0 -1 0
    outer loop
      vertex 54.882 12.5 3.59789
      vertex 52.5 12.5 0
      vertex 60.5 12.5 0
    endloop
  endfacet
  facet normal 0 -1 0
    outer loop
      vertex 53.5 12.5 5.5
      vertex 52.5 12.5 0
      vertex 53.882 12.5 4.32443
    endloop
  endfacet
  facet normal 0 -1 0
    outer loop
      vertex 54.882 12.5 7.40211
      vertex 56.118 12.5 7.40211
      vertex 52.5 12.5 11
    endloop
  endfacet
  facet normal 0 -1 0
    outer loop
      vertex 52.5 12.5 11
      vertex 52.5 12.5 0
      vertex 53.5 12.5 5.5
    endloop
  endfacet
  facet normal 0 -1 0
    outer loop
      vertex 56.118 12.5 3.59789
      vertex 54.882 12.5 3.59789
      vertex 60.5 12.5 0
    endloop
  endfacet
  facet normal 0 -1 0
    outer loop
      vertex 57.118 12.5 4.32443
      vertex 56.118 12.5 3.59789
      vertex 60.5 12.5 0
    endloop
  endfacet
  facet normal 0 -1 0
    outer loop
      vertex 52.5 12.5 11
      vertex 53.882 12.5 6.67557
      vertex 54.882 12.5 7.40211
    endloop
  endfacet
  facet normal 0 -1 0
    outer loop
      vertex 60.5 12.5 11
      vertex 52.5 12.5 11
      vertex 56.118 12.5 7.40211
    endloop
  endfacet
  facet normal 0 -1 0
    outer loop
      vertex 60.5 12.5 11
      vertex 57.118 12.5 6.67557
      vertex 60.5 12.5 0
    endloop
  endfacet
  facet normal 0 -1 0
    outer loop
      vertex 60.5 12.5 11
      vertex 56.118 12.5 7.40211
      vertex 57.118 12.5 6.67557
    endloop
  endfacet
  facet normal 0 -1 0
    outer loop
      vertex 57.118 12.5 6.67557
      vertex 57.5 12.5 5.5
      vertex 60.5 12.5 0
    endloop
  endfacet
  facet normal 0 -1 0
    outer loop
      vertex 53.882 12.5 4.32443
      vertex 52.5 12.5 0
      vertex 54.882 12.5 3.59789
    endloop
  endfacet
  facet normal 0 -1 0
    outer loop
      vertex 53.5 12.5 5.5
      vertex 53.882 12.5 6.67557
      vertex 52.5 12.5 11
    endloop
  endfacet
  facet normal 0 -1 0
    outer loop
      vertex 57.5 12.5 5.5
      vertex 57.118 12.5 4.32443
      vertex 60.5 12.5 0
    endloop
  endfacet
  facet normal 1 0 0
    outer loop
      vertex 60.5 12.5 11
      vertex 60.5 12.5 0
      vertex 60.5 16.5 0
    endloop
  endfacet
  facet normal 1 0 0
    outer loop
      vertex 60.5 16.5 11
      vertex 60.5 12.5 11
      vertex 60.5 16.5 0
    endloop
  endfacet
  facet normal 0 1 0
    outer loop
      vertex 56.118 16.5 3.59789
      vertex 60.5 16.5 0
      vertex 54.882 16.5 3.59789
    endloop
  endfacet
  facet normal 0 1 0
    outer loop
      vertex 54.882 16.5 7.40211
      vertex 46.5 16.5 11
      vertex 60.5 16.5 11
    endloop
  endfacet
  facet normal 0 1 0
    outer loop
      vertex 46.5 16.5 0
      vertex 46.5 16.5 11
      vertex 53.882 16.5 4.32443
    endloop
  endfacet
  facet normal 0 1 0
    outer loop
      vertex 46.5 16.5 0
      vertex 53.882 16.5 4.32443
      vertex 54.882 16.5 3.59789
    endloop
  endfacet
  facet normal 0 1 0
    outer loop
      vertex 46.5 16.5 0
      vertex 54.882 16.5 3.59789
      vertex 60.5 16.5 0
    endloop
  endfacet
  facet normal 0 1 0
    outer loop
      vertex 57.118 16.5 6.67557
      vertex 60.5 16.5 11
      vertex 57.5 16.5 5.5
    endloop
  endfacet
  facet normal 0 1 0
    outer loop
      vertex 60.5 16.5 0
      vertex 56.118 16.5 3.59789
      vertex 57.118 16.5 4.32443
    endloop
  endfacet
  facet normal 0 1 0
    outer loop
      vertex 60.5 16.5 0
      vertex 57.118 16.5 4.32443
      vertex 60.5 16.5 11
    endloop
  endfacet
  facet normal 0 1 0
    outer loop
      vertex 57.118 16.5 4.32443
      vertex 57.5 16.5 5.5
      vertex 60.5 16.5 11
    endloop
  endfacet
  facet normal 0 1 0
    outer loop
      vertex 54.882 16.5 7.40211
      vertex 60.5 16.5 11
      vertex 56.118 16.5 7.40211
    endloop
  endfacet
  facet normal 0 1 0
    outer loop
      vertex 57.118 16.5 6.67557
      vertex 56.118 16.5 7.40211
      vertex 60.5 16.5 11
    endloop
  endfacet
  facet normal 0 1 0
    outer loop
      vertex 53.882 16.5 6.67557
      vertex 46.5 16.5 11
      vertex 54.882 16.5 7.40211
    endloop
  endfacet
  facet normal 0 1 0
    outer loop
      vertex 53.5 16.5 5.5
      vertex 46.5 16.5 11
      vertex 53.882 16.5 6.67557
    endloop
  endfacet
  facet normal 0 1 0
    outer loop
      vertex 53.882 16.5 4.32443
      vertex 46.5 16.5 11
      vertex 53.5 16.5 5.5
    endloop
  endfacet
  facet normal -1 0 0
    outer loop
      vertex 46.5 12.5 0
      vertex 46.5 12.5 11
      vertex 46.5 16.5 0
    endloop
  endfacet
  facet normal -1 0 0
    outer loop
      vertex 46.5 16.5 0
      vertex 46.5 12.5 11
      vertex 46.5 16.5 11
    endloop
  endfacet
  facet normal -1 0 0
    outer loop
      vertex 46.5 4 0
      vertex 46.5 4 11
      vertex 46.5 12.5 0
    endloop
  endfacet
  facet normal -1 0 0
    outer loop
      vertex 46.5 12.5 0
      vertex 46.5 4 11
      vertex 46.5 12.5 11
    endloop
  endfacet
  facet normal 0 1 0
    outer loop
      vertex 46.5 4 11
      vertex 46.5 4 0
      vertex 16 4 11
    endloop
  endfacet
  facet normal 0 1 0
    outer loop
      vertex 16 4 11
      vertex 46.5 4 0
      vertex 16 4 0
    endloop
  endfacet
  facet normal 1 0 0
    outer loop
      vertex 16 4 11
      vertex 16 4 0
      vertex 16 12.5 0
    endloop
  endfacet
  facet normal 1 0 0
    outer loop
      vertex 16 12.5 11
      vertex 16 4 11
      vertex 16 12.5 0
    endloop
  endfacet
  facet normal 1 0 0
    outer loop
      vertex 16 12.5 11
      vertex 16 12.5 0
      vertex 16 16.5 0
    endloop
  endfacet
  facet normal 1 0 0
    outer loop
      vertex 16 16.5 11
      vertex 16 12.5 11
      vertex 16 16.5 0
    endloop
  endfacet
  facet normal 0.951056 -0.309017 0
    outer loop
      vertex 11.9887 10.7347 0
      vertex 11.9887 10.7347 11
      vertex 11.75 10 11
    endloop
  endfacet
  facet normal 0.951056 -0.309017 0
    outer loop
      vertex 11.75 10 0
      vertex 11.9887 10.7347 0
      vertex 11.75 10 11
    endloop
  endfacet
  facet normal 0.951056 0.309017 0
    outer loop
      vertex 11.75 10 11
      vertex 11.9887 9.26527 11
      vertex 11.9887 9.26527 0
    endloop
  endfacet
  facet normal 0.951056 0.309017 0
    outer loop
      vertex 11.75 10 0
      vertex 11.75 10 11
      vertex 11.9887 9.26527 0
    endloop
  endfacet
  facet normal 0.587785 -0.809017 0
    outer loop
      vertex 12.6137 11.1888 0
      vertex 12.6137 11.1888 11
      vertex 11.9887 10.7347 11
    endloop
  endfacet
  facet normal 0.587785 -0.809017 0
    outer loop
      vertex 11.9887 10.7347 0
      vertex 12.6137 11.1888 0
      vertex 11.9887 10.7347 11
    endloop
  endfacet
  facet normal 0 -1 0
    outer loop
      vertex 13.3863 11.1888 0
      vertex 13.3863 11.1888 11
      vertex 12.6137 11.1888 11
    endloop
  endfacet
  facet normal 0 -1 0
    outer loop
      vertex 12.6137 11.1888 0
      vertex 13.3863 11.1888 0
      vertex 12.6137 11.1888 11
    endloop
  endfacet
  facet normal -0.587785 -0.809017 0
    outer loop
      vertex 14.0113 10.7347 0
      vertex 14.0113 10.7347 11
      vertex 13.3863 11.1888 11
    endloop
  endfacet
  facet normal -0.587785 -0.809017 0
    outer loop
      vertex 13.3863 11.1888 0
      vertex 14.0113 10.7347 0
      vertex 13.3863 11.1888 11
    endloop
  endfacet
  facet normal -0.951056 -0.309017 0
    outer loop
      vertex 14.25 10 11
      vertex 14.0113 10.7347 11
      vertex 14.25 10 0
    endloop
  endfacet
  facet normal -0.951056 -0.309017 0
    outer loop
      vertex 14.25 10 0
      vertex 14.0113 10.7347 11
      vertex 14.0113 10.7347 0
    endloop
  endfacet
  facet normal -0.951056 0.309017 0
    outer loop
      vertex 14.25 10 11
      vertex 14.25 10 0
      vertex 14.0113 9.26527 11
    endloop
  endfacet
  facet normal -0.951056 0.309017 0
    outer loop
      vertex 14.0113 9.26527 11
      vertex 14.25 10 0
      vertex 14.0113 9.26527 0
    endloop
  endfacet
  facet normal -0.587785 0.809017 0
    outer loop
      vertex 14.0113 9.26527 11
      vertex 14.0113 9.26527 0
      vertex 13.3863 8.81118 11
    endloop
  endfacet
  facet normal -0.587785 0.809017 0
    outer loop
      vertex 13.3863 8.81118 11
      vertex 14.0113 9.26527 0
      vertex 13.3863 8.81118 0
    endloop
  endfacet
  facet normal 0 1 0
    outer loop
      vertex 13.3863 8.81118 11
      vertex 13.3863 8.81118 0
      vertex 12.6137 8.81118 11
    endloop
  endfacet
  facet normal 0 1 0
    outer loop
      vertex 12.6137 8.81118 11
      vertex 13.3863 8.81118 0
      vertex 12.6137 8.81118 0
    endloop
  endfacet
  facet normal 0.587785 0.809017 0
    outer loop
      vertex 12.6137 8.81118 11
      vertex 12.6137 8.81118 0
      vertex 11.9887 9.26527 11
    endloop
  endfacet
  facet normal 0.587785 0.809017 0
    outer loop
      vertex 11.9887 9.26527 11
      vertex 12.6137 8.81118 0
      vertex 11.9887 9.26527 0
    endloop
  endfacet
  facet normal 0.951056 -0.309017 0
    outer loop
      vertex 48.4887 10.7347 0
      vertex 48.4887 10.7347 11
      vertex 48.25 10 11
    endloop
  endfacet
  facet normal 0.951056 -0.309017 0
    outer loop
      vertex 48.25 10 0
      vertex 48.4887 10.7347 0
      vertex 48.25 10 11
    endloop
  endfacet
  facet normal 0.951056 0.309017 0
    outer loop
      vertex 48.25 10 11
      vertex 48.4887 9.26527 11
      vertex 48.4887 9.26527 0
    endloop
  endfacet
  facet normal 0.951056 0.309017 0
    outer loop
      vertex 48.25 10 0
      vertex 48.25 10 11
      vertex 48.4887 9.26527 0
    endloop
  endfacet
  facet normal 0.587785 -0.809017 0
    outer loop
      vertex 49.1137 11.1888 0
      vertex 49.1137 11.1888 11
      vertex 48.4887 10.7347 11
    endloop
  endfacet
  facet normal 0.587785 -0.809017 0
    outer loop
      vertex 48.4887 10.7347 0
      vertex 49.1137 11.1888 0
      vertex 48.4887 10.7347 11
    endloop
  endfacet
  facet normal 0 -1 0
    outer loop
      vertex 49.8863 11.1888 0
      vertex 49.8863 11.1888 11
      vertex 49.1137 11.1888 11
    endloop
  endfacet
  facet normal 0 -1 0
    outer loop
      vertex 49.1137 11.1888 0
      vertex 49.8863 11.1888 0
      vertex 49.1137 11.1888 11
    endloop
  endfacet
  facet normal -0.587785 -0.809017 0
    outer loop
      vertex 50.5113 10.7347 0
      vertex 50.5113 10.7347 11
      vertex 49.8863 11.1888 11
    endloop
  endfacet
  facet normal -0.587785 -0.809017 0
    outer loop
      vertex 49.8863 11.1888 0
      vertex 50.5113 10.7347 0
      vertex 49.8863 11.1888 11
    endloop
  endfacet
  facet normal -0.951056 -0.309017 0
    outer loop
      vertex 50.75 10 11
      vertex 50.5113 10.7347 11
      vertex 50.75 10 0
    endloop
  endfacet
  facet normal -0.951056 -0.309017 0
    outer loop
      vertex 50.75 10 0
      vertex 50.5113 10.7347 11
      vertex 50.5113 10.7347 0
    endloop
  endfacet
  facet normal -0.951056 0.309017 0
    outer loop
      vertex 50.75 10 11
      vertex 50.75 10 0
      vertex 50.5113 9.26527 11
    endloop
  endfacet
  facet normal -0.951056 0.309017 0
    outer loop
      vertex 50.5113 9.26527 11
      vertex 50.75 10 0
      vertex 50.5113 9.26527 0
    endloop
  endfacet
  facet normal -0.587785 0.809017 0
    outer loop
      vertex 50.5113 9.26527 11
      vertex 50.5113 9.26527 0
      vertex 49.8863 8.81118 11
    endloop
  endfacet
  facet normal -0.587785 0.809017 0
    outer loop
      vertex 49.8863 8.81118 11
      vertex 50.5113 9.26527 0
      vertex 49.8863 8.81118 0
    endloop
  endfacet
  facet normal 0 1 0
    outer loop
      vertex 49.8863 8.81118 11
      vertex 49.8863 8.81118 0
      vertex 49.1137 8.81118 11
    endloop
  endfacet
  facet normal 0 1 0
    outer loop
      vertex 49.1137 8.81118 11
      vertex 49.8863 8.81118 0
      vertex 49.1137 8.81118 0
    endloop
  endfacet
  facet normal 0.587785 0.809017 0
    outer loop
      vertex 49.1137 8.81118 11
      vertex 49.1137 8.81118 0
      vertex 48.4887 9.26527 11
    endloop
  endfacet
  facet normal 0.587785 0.809017 0
    outer loop
      vertex 48.4887 9.26527 11
      vertex 49.1137 8.81118 0
      vertex 48.4887 9.26527 0
    endloop
  endfacet
  facet normal 0.587785 -1.79638e-16 0.809017
    outer loop
      vertex 54.882 12.5 3.59789
      vertex 54.882 16.5 3.59789
      vertex 53.882 16.5 4.32443
    endloop
  endfacet
  facet normal 0.587785 -1.79638e-16 0.809017
    outer loop
      vertex 53.882 12.5 4.32443
      vertex 54.882 12.5 3.59789
      vertex 53.882 16.5 4.32443
    endloop
  endfacet
  facet normal 0.951057 -6.86155e-17 0.309017
    outer loop
      vertex 53.882 12.5 4.32443
      vertex 53.882 16.5 4.32443
      vertex 53.5 16.5 5.5
    endloop
  endfacet
  facet normal 0.951057 -6.86155e-17 0.309017
    outer loop
      vertex 53.5 12.5 5.5
      vertex 53.882 12.5 4.32443
      vertex 53.5 16.5 5.5
    endloop
  endfacet
  facet normal 0 -2.22045e-16 1
    outer loop
      vertex 56.118 12.5 3.59789
      vertex 56.118 16.5 3.59789
      vertex 54.882 16.5 3.59789
    endloop
  endfacet
  facet normal 0 -2.22045e-16 1
    outer loop
      vertex 54.882 12.5 3.59789
      vertex 56.118 12.5 3.59789
      vertex 54.882 16.5 3.59789
    endloop
  endfacet
  facet normal -0.587785 -1.79638e-16 0.809017
    outer loop
      vertex 57.118 12.5 4.32443
      vertex 57.118 16.5 4.32443
      vertex 56.118 16.5 3.59789
    endloop
  endfacet
  facet normal -0.587785 -1.79638e-16 0.809017
    outer loop
      vertex 56.118 12.5 3.59789
      vertex 57.118 12.5 4.32443
      vertex 56.118 16.5 3.59789
    endloop
  endfacet
  facet normal -0.951057 -6.86155e-17 0.309017
    outer loop
      vertex 57.5 16.5 5.5
      vertex 57.118 16.5 4.32443
      vertex 57.5 12.5 5.5
    endloop
  endfacet
  facet normal -0.951057 -6.86155e-17 0.309017
    outer loop
      vertex 57.5 12.5 5.5
      vertex 57.118 16.5 4.32443
      vertex 57.118 12.5 4.32443
    endloop
  endfacet
  facet normal -0.951057 6.86155e-17 -0.309017
    outer loop
      vertex 57.5 16.5 5.5
      vertex 57.5 12.5 5.5
      vertex 57.118 16.5 6.67557
    endloop
  endfacet
  facet normal -0.951057 6.86155e-17 -0.309017
    outer loop
      vertex 57.118 16.5 6.67557
      vertex 57.5 12.5 5.5
      vertex 57.118 12.5 6.67557
    endloop
  endfacet
  facet normal -0.587785 1.79638e-16 -0.809017
    outer loop
      vertex 57.118 16.5 6.67557
      vertex 57.118 12.5 6.67557
      vertex 56.118 16.5 7.40211
    endloop
  endfacet
  facet normal -0.587785 1.79638e-16 -0.809017
    outer loop
      vertex 56.118 16.5 7.40211
      vertex 57.118 12.5 6.67557
      vertex 56.118 12.5 7.40211
    endloop
  endfacet
  facet normal 0 2.22045e-16 -1
    outer loop
      vertex 56.118 16.5 7.40211
      vertex 56.118 12.5 7.40211
      vertex 54.882 16.5 7.40211
    endloop
  endfacet
  facet normal 0 2.22045e-16 -1
    outer loop
      vertex 54.882 16.5 7.40211
      vertex 56.118 12.5 7.40211
      vertex 54.882 12.5 7.40211
    endloop
  endfacet
  facet normal 0.587785 1.79638e-16 -0.809017
    outer loop
      vertex 54.882 16.5 7.40211
      vertex 54.882 12.5 7.40211
      vertex 53.882 16.5 6.67557
    endloop
  endfacet
  facet normal 0.587785 1.79638e-16 -0.809017
    outer loop
      vertex 53.882 16.5 6.67557
      vertex 54.882 12.5 7.40211
      vertex 53.882 12.5 6.67557
    endloop
  endfacet
  facet normal 0.951057 6.86155e-17 -0.309017
    outer loop
      vertex 53.5 16.5 5.5
      vertex 53.882 16.5 6.67557
      vertex 53.882 12.5 6.67557
    endloop
  endfacet
  facet normal 0.951057 6.86155e-17 -0.309017
    outer loop
      vertex 53.5 12.5 5.5
      vertex 53.5 16.5 5.5
      vertex 53.882 12.5 6.67557
    endloop
  endfacet
endsolid OpenSCAD_Model
